<mxfile host="app.diagrams.net" modified="2023-11-10T11:03:47.472Z" agent="Mozilla/5.0 (Windows NT 10.0; Win64; x64) AppleWebKit/537.36 (KHTML, like Gecko) Chrome/118.0.0.0 Safari/537.36" etag="XNISf0QLKF89Be9MI01w" version="22.1.0" type="github">
  <diagram name="Page-1" id="JPabKTOy_tWIN6cOZ6wh">
    <mxGraphModel dx="1034" dy="464" grid="1" gridSize="10" guides="1" tooltips="1" connect="1" arrows="1" fold="1" page="1" pageScale="1" pageWidth="850" pageHeight="1100" math="0" shadow="0">
      <root>
        <mxCell id="0" />
        <mxCell id="1" parent="0" />
        <mxCell id="2iQ11YzVbMbQ5YA5zNbB-1" value="" style="rounded=0;whiteSpace=wrap;html=1;" vertex="1" parent="1">
          <mxGeometry x="80" y="110" width="120" height="40" as="geometry" />
        </mxCell>
        <mxCell id="2iQ11YzVbMbQ5YA5zNbB-2" value="" style="rounded=0;whiteSpace=wrap;html=1;" vertex="1" parent="1">
          <mxGeometry x="40" y="40" width="200" height="400" as="geometry" />
        </mxCell>
        <mxCell id="2iQ11YzVbMbQ5YA5zNbB-4" value="" style="rounded=1;whiteSpace=wrap;html=1;" vertex="1" parent="1">
          <mxGeometry x="70" y="70" width="140" height="220" as="geometry" />
        </mxCell>
        <mxCell id="2iQ11YzVbMbQ5YA5zNbB-5" value="" style="rounded=0;whiteSpace=wrap;html=1;" vertex="1" parent="1">
          <mxGeometry x="90" y="80" width="100" height="60" as="geometry" />
        </mxCell>
        <mxCell id="2iQ11YzVbMbQ5YA5zNbB-6" value="" style="rounded=0;whiteSpace=wrap;html=1;" vertex="1" parent="1">
          <mxGeometry x="90" y="150" width="100" height="60" as="geometry" />
        </mxCell>
        <mxCell id="2iQ11YzVbMbQ5YA5zNbB-7" value="" style="rounded=0;whiteSpace=wrap;html=1;" vertex="1" parent="1">
          <mxGeometry x="90" y="220" width="100" height="60" as="geometry" />
        </mxCell>
        <mxCell id="2iQ11YzVbMbQ5YA5zNbB-11" value="" style="rounded=0;whiteSpace=wrap;html=1;" vertex="1" parent="1">
          <mxGeometry x="90" y="300" width="100" height="60" as="geometry" />
        </mxCell>
        <mxCell id="2iQ11YzVbMbQ5YA5zNbB-12" value="" style="rounded=0;whiteSpace=wrap;html=1;" vertex="1" parent="1">
          <mxGeometry x="90" y="370" width="100" height="60" as="geometry" />
        </mxCell>
        <mxCell id="2iQ11YzVbMbQ5YA5zNbB-13" value="" style="rounded=0;whiteSpace=wrap;html=1;" vertex="1" parent="1">
          <mxGeometry x="280" y="40" width="680" height="100" as="geometry" />
        </mxCell>
        <mxCell id="2iQ11YzVbMbQ5YA5zNbB-15" value="" style="rounded=0;whiteSpace=wrap;html=1;" vertex="1" parent="1">
          <mxGeometry x="310" y="60" width="100" height="60" as="geometry" />
        </mxCell>
        <mxCell id="2iQ11YzVbMbQ5YA5zNbB-16" value="" style="rounded=0;whiteSpace=wrap;html=1;" vertex="1" parent="1">
          <mxGeometry x="570" y="60" width="100" height="60" as="geometry" />
        </mxCell>
        <mxCell id="2iQ11YzVbMbQ5YA5zNbB-17" value="" style="rounded=0;whiteSpace=wrap;html=1;" vertex="1" parent="1">
          <mxGeometry x="700" y="60" width="100" height="60" as="geometry" />
        </mxCell>
        <mxCell id="2iQ11YzVbMbQ5YA5zNbB-18" value="" style="rounded=0;whiteSpace=wrap;html=1;" vertex="1" parent="1">
          <mxGeometry x="440" y="60" width="100" height="60" as="geometry" />
        </mxCell>
        <mxCell id="2iQ11YzVbMbQ5YA5zNbB-19" value="" style="rounded=0;whiteSpace=wrap;html=1;" vertex="1" parent="1">
          <mxGeometry x="830" y="60" width="100" height="60" as="geometry" />
        </mxCell>
        <mxCell id="2iQ11YzVbMbQ5YA5zNbB-20" value="" style="rounded=0;whiteSpace=wrap;html=1;" vertex="1" parent="1">
          <mxGeometry x="510" y="200" width="450" height="120" as="geometry" />
        </mxCell>
        <mxCell id="2iQ11YzVbMbQ5YA5zNbB-21" value="" style="rounded=0;whiteSpace=wrap;html=1;" vertex="1" parent="1">
          <mxGeometry x="520" y="360" width="440" height="120" as="geometry" />
        </mxCell>
        <mxCell id="2iQ11YzVbMbQ5YA5zNbB-22" value="" style="rounded=0;whiteSpace=wrap;html=1;" vertex="1" parent="1">
          <mxGeometry x="300" y="210" width="60" height="60" as="geometry" />
        </mxCell>
        <mxCell id="2iQ11YzVbMbQ5YA5zNbB-23" value="" style="rounded=0;whiteSpace=wrap;html=1;" vertex="1" parent="1">
          <mxGeometry x="280" y="200" width="200" height="120" as="geometry" />
        </mxCell>
        <mxCell id="2iQ11YzVbMbQ5YA5zNbB-24" value="" style="rounded=0;whiteSpace=wrap;html=1;" vertex="1" parent="1">
          <mxGeometry x="550" y="390" width="100" height="60" as="geometry" />
        </mxCell>
        <mxCell id="2iQ11YzVbMbQ5YA5zNbB-25" value="" style="rounded=0;whiteSpace=wrap;html=1;" vertex="1" parent="1">
          <mxGeometry x="690" y="390" width="100" height="60" as="geometry" />
        </mxCell>
        <mxCell id="2iQ11YzVbMbQ5YA5zNbB-26" value="" style="rounded=0;whiteSpace=wrap;html=1;" vertex="1" parent="1">
          <mxGeometry x="830" y="390" width="100" height="60" as="geometry" />
        </mxCell>
        <mxCell id="2iQ11YzVbMbQ5YA5zNbB-27" value="" style="rounded=0;whiteSpace=wrap;html=1;" vertex="1" parent="1">
          <mxGeometry x="850" y="240" width="100" height="60" as="geometry" />
        </mxCell>
        <mxCell id="2iQ11YzVbMbQ5YA5zNbB-28" value="" style="rounded=0;whiteSpace=wrap;html=1;" vertex="1" parent="1">
          <mxGeometry x="520" y="240" width="100" height="60" as="geometry" />
        </mxCell>
        <mxCell id="2iQ11YzVbMbQ5YA5zNbB-29" value="" style="rounded=0;whiteSpace=wrap;html=1;" vertex="1" parent="1">
          <mxGeometry x="630" y="240" width="100" height="60" as="geometry" />
        </mxCell>
        <mxCell id="2iQ11YzVbMbQ5YA5zNbB-30" value="" style="rounded=0;whiteSpace=wrap;html=1;" vertex="1" parent="1">
          <mxGeometry x="740" y="240" width="100" height="60" as="geometry" />
        </mxCell>
        <mxCell id="2iQ11YzVbMbQ5YA5zNbB-35" value="" style="rounded=0;whiteSpace=wrap;html=1;" vertex="1" parent="1">
          <mxGeometry x="280" y="360" width="200" height="120" as="geometry" />
        </mxCell>
        <mxCell id="2iQ11YzVbMbQ5YA5zNbB-36" value="" style="rounded=0;whiteSpace=wrap;html=1;" vertex="1" parent="1">
          <mxGeometry x="290" y="240" width="90" height="40" as="geometry" />
        </mxCell>
        <mxCell id="2iQ11YzVbMbQ5YA5zNbB-37" value="" style="rounded=0;whiteSpace=wrap;html=1;" vertex="1" parent="1">
          <mxGeometry x="390" y="240" width="80" height="40" as="geometry" />
        </mxCell>
        <mxCell id="2iQ11YzVbMbQ5YA5zNbB-38" value="" style="rounded=0;whiteSpace=wrap;html=1;" vertex="1" parent="1">
          <mxGeometry x="390" y="400" width="80" height="40" as="geometry" />
        </mxCell>
        <mxCell id="2iQ11YzVbMbQ5YA5zNbB-40" value="" style="rounded=0;whiteSpace=wrap;html=1;" vertex="1" parent="1">
          <mxGeometry x="295" y="400" width="80" height="40" as="geometry" />
        </mxCell>
        <mxCell id="2iQ11YzVbMbQ5YA5zNbB-41" style="edgeStyle=orthogonalEdgeStyle;rounded=0;orthogonalLoop=1;jettySize=auto;html=1;exitX=0;exitY=0.5;exitDx=0;exitDy=0;" edge="1" parent="1" source="2iQ11YzVbMbQ5YA5zNbB-21" target="2iQ11YzVbMbQ5YA5zNbB-21">
          <mxGeometry relative="1" as="geometry" />
        </mxCell>
      </root>
    </mxGraphModel>
  </diagram>
</mxfile>
